<svg width="260" height="250" viewBox="0 0 260 250" fill="none" xmlns="http://www.w3.org/2000/svg">
<rect width="10" height="10" rx="5" fill="black"/>
<rect y="96" width="10" height="10" rx="5" fill="black"/>
<rect y="192" width="10" height="10" rx="5" fill="black"/>
<rect y="24" width="10" height="10" rx="5" fill="black"/>
<rect y="120" width="10" height="10" rx="5" fill="black"/>
<rect y="216" width="10" height="10" rx="5" fill="black"/>
<rect y="48" width="10" height="10" rx="5" fill="black"/>
<rect y="144" width="10" height="10" rx="5" fill="black"/>
<rect y="240" width="10" height="10" rx="5" fill="black"/>
<rect y="72" width="10" height="10" rx="5" fill="black"/>
<rect y="168" width="10" height="10" rx="5" fill="black"/>
<rect x="100" width="10" height="10" rx="5" fill="black"/>
<rect x="100" y="96" width="10" height="10" rx="5" fill="black"/>
<rect x="100" y="192" width="10" height="10" rx="5" fill="black"/>
<rect x="100" y="24" width="10" height="10" rx="5" fill="black"/>
<rect x="100" y="120" width="10" height="10" rx="5" fill="black"/>
<rect x="100" y="216" width="10" height="10" rx="5" fill="black"/>
<rect x="100" y="48" width="10" height="10" rx="5" fill="black"/>
<rect x="100" y="144" width="10" height="10" rx="5" fill="black"/>
<rect x="100" y="240" width="10" height="10" rx="5" fill="black"/>
<rect x="100" y="72" width="10" height="10" rx="5" fill="black"/>
<rect x="100" y="168" width="10" height="10" rx="5" fill="black"/>
<rect x="25" width="10" height="10" rx="5" fill="black"/>
<rect x="25" y="96" width="10" height="10" rx="5" fill="black"/>
<rect x="25" y="192" width="10" height="10" rx="5" fill="black"/>
<rect x="25" y="24" width="10" height="10" rx="5" fill="black"/>
<rect x="25" y="120" width="10" height="10" rx="5" fill="black"/>
<rect x="25" y="216" width="10" height="10" rx="5" fill="black"/>
<rect x="25" y="48" width="10" height="10" rx="5" fill="black"/>
<rect x="25" y="144" width="10" height="10" rx="5" fill="black"/>
<rect x="25" y="240" width="10" height="10" rx="5" fill="black"/>
<rect x="25" y="72" width="10" height="10" rx="5" fill="black"/>
<rect x="25" y="168" width="10" height="10" rx="5" fill="black"/>
<rect x="125" width="10" height="10" rx="5" fill="black"/>
<rect x="125" y="96" width="10" height="10" rx="5" fill="black"/>
<rect x="125" y="192" width="10" height="10" rx="5" fill="black"/>
<rect x="125" y="24" width="10" height="10" rx="5" fill="black"/>
<rect x="125" y="120" width="10" height="10" rx="5" fill="black"/>
<rect x="125" y="216" width="10" height="10" rx="5" fill="black"/>
<rect x="125" y="48" width="10" height="10" rx="5" fill="black"/>
<rect x="125" y="144" width="10" height="10" rx="5" fill="black"/>
<rect x="125" y="240" width="10" height="10" rx="5" fill="black"/>
<rect x="125" y="72" width="10" height="10" rx="5" fill="black"/>
<rect x="125" y="168" width="10" height="10" rx="5" fill="black"/>
<rect x="200" width="10" height="10" rx="5" fill="black"/>
<rect x="200" y="96" width="10" height="10" rx="5" fill="black"/>
<rect x="200" y="192" width="10" height="10" rx="5" fill="black"/>
<rect x="200" y="24" width="10" height="10" rx="5" fill="black"/>
<rect x="200" y="120" width="10" height="10" rx="5" fill="black"/>
<rect x="200" y="216" width="10" height="10" rx="5" fill="black"/>
<rect x="200" y="48" width="10" height="10" rx="5" fill="black"/>
<rect x="200" y="144" width="10" height="10" rx="5" fill="black"/>
<rect x="200" y="240" width="10" height="10" rx="5" fill="black"/>
<rect x="200" y="72" width="10" height="10" rx="5" fill="black"/>
<rect x="200" y="168" width="10" height="10" rx="5" fill="black"/>
<rect x="50" width="10" height="10" rx="5" fill="black"/>
<rect x="50" y="96" width="10" height="10" rx="5" fill="black"/>
<rect x="50" y="192" width="10" height="10" rx="5" fill="black"/>
<rect x="50" y="24" width="10" height="10" rx="5" fill="black"/>
<rect x="50" y="120" width="10" height="10" rx="5" fill="black"/>
<rect x="50" y="216" width="10" height="10" rx="5" fill="black"/>
<rect x="50" y="48" width="10" height="10" rx="5" fill="black"/>
<rect x="50" y="144" width="10" height="10" rx="5" fill="black"/>
<rect x="50" y="240" width="10" height="10" rx="5" fill="black"/>
<rect x="50" y="72" width="10" height="10" rx="5" fill="black"/>
<rect x="50" y="168" width="10" height="10" rx="5" fill="black"/>
<rect x="150" width="10" height="10" rx="5" fill="black"/>
<rect x="150" y="96" width="10" height="10" rx="5" fill="black"/>
<rect x="150" y="192" width="10" height="10" rx="5" fill="black"/>
<rect x="150" y="24" width="10" height="10" rx="5" fill="black"/>
<rect x="150" y="120" width="10" height="10" rx="5" fill="black"/>
<rect x="150" y="216" width="10" height="10" rx="5" fill="black"/>
<rect x="150" y="48" width="10" height="10" rx="5" fill="black"/>
<rect x="150" y="144" width="10" height="10" rx="5" fill="black"/>
<rect x="150" y="240" width="10" height="10" rx="5" fill="black"/>
<rect x="150" y="72" width="10" height="10" rx="5" fill="black"/>
<rect x="150" y="168" width="10" height="10" rx="5" fill="black"/>
<rect x="225" width="10" height="10" rx="5" fill="black"/>
<rect x="225" y="96" width="10" height="10" rx="5" fill="black"/>
<rect x="225" y="192" width="10" height="10" rx="5" fill="black"/>
<rect x="225" y="24" width="10" height="10" rx="5" fill="black"/>
<rect x="225" y="120" width="10" height="10" rx="5" fill="black"/>
<rect x="225" y="216" width="10" height="10" rx="5" fill="black"/>
<rect x="225" y="48" width="10" height="10" rx="5" fill="black"/>
<rect x="225" y="144" width="10" height="10" rx="5" fill="black"/>
<rect x="225" y="240" width="10" height="10" rx="5" fill="black"/>
<rect x="225" y="72" width="10" height="10" rx="5" fill="black"/>
<rect x="225" y="168" width="10" height="10" rx="5" fill="black"/>
<rect x="75" width="10" height="10" rx="5" fill="black"/>
<rect x="75" y="96" width="10" height="10" rx="5" fill="black"/>
<rect x="75" y="192" width="10" height="10" rx="5" fill="black"/>
<rect x="75" y="24" width="10" height="10" rx="5" fill="black"/>
<rect x="75" y="120" width="10" height="10" rx="5" fill="black"/>
<rect x="75" y="216" width="10" height="10" rx="5" fill="black"/>
<rect x="75" y="48" width="10" height="10" rx="5" fill="black"/>
<rect x="75" y="144" width="10" height="10" rx="5" fill="black"/>
<rect x="75" y="240" width="10" height="10" rx="5" fill="black"/>
<rect x="75" y="72" width="10" height="10" rx="5" fill="black"/>
<rect x="75" y="168" width="10" height="10" rx="5" fill="black"/>
<rect x="175" width="10" height="10" rx="5" fill="black"/>
<rect x="175" y="96" width="10" height="10" rx="5" fill="black"/>
<rect x="175" y="192" width="10" height="10" rx="5" fill="black"/>
<rect x="175" y="24" width="10" height="10" rx="5" fill="black"/>
<rect x="175" y="120" width="10" height="10" rx="5" fill="black"/>
<rect x="175" y="216" width="10" height="10" rx="5" fill="black"/>
<rect x="175" y="48" width="10" height="10" rx="5" fill="black"/>
<rect x="175" y="144" width="10" height="10" rx="5" fill="black"/>
<rect x="175" y="240" width="10" height="10" rx="5" fill="black"/>
<rect x="175" y="72" width="10" height="10" rx="5" fill="black"/>
<rect x="175" y="168" width="10" height="10" rx="5" fill="black"/>
<rect x="250" width="10" height="10" rx="5" fill="black"/>
<rect x="250" y="96" width="10" height="10" rx="5" fill="black"/>
<rect x="250" y="192" width="10" height="10" rx="5" fill="black"/>
<rect x="250" y="24" width="10" height="10" rx="5" fill="black"/>
<rect x="250" y="120" width="10" height="10" rx="5" fill="black"/>
<rect x="250" y="216" width="10" height="10" rx="5" fill="black"/>
<rect x="250" y="48" width="10" height="10" rx="5" fill="black"/>
<rect x="250" y="144" width="10" height="10" rx="5" fill="black"/>
<rect x="250" y="240" width="10" height="10" rx="5" fill="black"/>
<rect x="250" y="72" width="10" height="10" rx="5" fill="black"/>
<rect x="250" y="168" width="10" height="10" rx="5" fill="black"/>
</svg>
